<svg width="256" height="256" viewBox="0 0 256 256" xmlns="http://www.w3.org/2000/svg" fill="none">
  <defs>
    <linearGradient id="g" x1="0" y1="0" x2="1" y2="1">
      <stop offset="0%" stop-color="#22d3ee" />
      <stop offset="100%" stop-color="#6366f1" />
    </linearGradient>
  </defs>
  <rect width="256" height="256" rx="48" fill="#0f172a"/>
  <path d="M128 28c28 40 12 60 0 76-12 16-8 36 0 44 20-8 36-24 40-44 8 16 12 44-12 68 20-4 36-20 44-36 4 32-20 68-64 92-44-24-68-60-64-92 8 16 24 32 44 36-24-24-20-52-12-68 4 20 20 36 40 44 8-8 12-28 0-44-12-16-28-36 0-76z" fill="url(#g)"/>
</svg>